<?xml version="1.0" standalone="no"?>
<!DOCTYPE svg PUBLIC "-//W3C//DTD SVG 20010904//EN"
 "http://www.w3.org/TR/2001/REC-SVG-20010904/DTD/svg10.dtd">
<svg version="1.0" xmlns="http://www.w3.org/2000/svg"
 width="700.000000pt" height="700.000000pt" viewBox="0 0 700.000000 700.000000"
 preserveAspectRatio="xMidYMid meet">
<metadata>
Created by potrace 1.11, written by Peter Selinger 2001-2013
</metadata>
<g transform="translate(0.000000,700.000000) scale(0.100000,-0.100000)"
fill="#000000" stroke="none">
<path d="M1619 6996 c-2 -2 -34 -6 -71 -10 -69 -6 -190 -29 -243 -46 -16 -5
-41 -11 -55 -14 -42 -8 -201 -71 -280 -111 -343 -173 -628 -462 -794 -805 -44
-91 -99 -241 -121 -330 -52 -216 -49 -84 -51 -2140 -1 -1048 1 -1932 6 -1965
4 -33 11 -82 15 -110 3 -27 8 -58 11 -67 3 -9 7 -25 9 -37 8 -41 45 -168 65
-219 145 -379 402 -686 749 -895 79 -48 264 -136 295 -141 6 -1 16 -5 22 -8
15 -10 203 -60 241 -64 17 -3 53 -10 80 -16 36 -9 539 -12 1963 -14 2065 -2
2008 -3 2225 52 628 162 1130 678 1269 1304 45 204 45 159 42 2180 -2 1746 -4
1922 -19 1995 -9 44 -19 91 -22 104 -19 96 -82 273 -136 381 -87 177 -189 318
-333 463 -259 261 -570 422 -953 495 -80 15 -265 16 -1999 19 -1051 2 -1913 1
-1915 -1z"/>
</g>
</svg>
